<svg xmlns="http://www.w3.org/2000/svg" width="651" height="418" viewBox="0 0 651 418" font-family="DejaVu Sans, Liberation Sans, Helvetica, Arial, sans-serif">
<style>.t{fill:#57606a;font-size:12px}.m{fill:#24292f;font-size:12.5px}.h{fill:#57606a;font-size:11px;letter-spacing:.06em}.o{fill:#8c959f}.l{fill:#2da44e}.ax{stroke:#d0d7de;stroke-width:1}@media (prefers-color-scheme:dark){.t,.h{fill:#8b949e}.m{fill:#e6edf3}.o{fill:#6e7681}.l{fill:#3fb950}.ax{stroke:#30363d}}</style>
<text class="h" x="161" y="22">DECODE TOK/S, ONE CARD, 2026-08-27, OUT OF DATE</text>
<line class="ax" x1="161" y1="38" x2="161" y2="402"/>
<text class="m" x="151" y="59" text-anchor="end">gpt-oss:20b</text>
<rect class="o" x="161" y="44" width="113.7" height="15" rx="2"/>
<rect class="l" x="161" y="63" width="178.6" height="15" rx="2"/>
<text class="t" x="280.7121680049413" y="56">132</text>
<text class="t" x="345.5670166769611" y="75">206  (+57%)</text>
<text class="m" x="151" y="105" text-anchor="end">llama3.2:1b</text>
<rect class="o" x="161" y="90" width="257.4" height="15" rx="2"/>
<rect class="l" x="161" y="109" width="389.2" height="15" rx="2"/>
<text class="t" x="424.4305126621371" y="102">298</text>
<text class="t" x="556.2155651636813" y="121">450  (+51%)</text>
<text class="m" x="151" y="151" text-anchor="end">qwen2.5:0.5b</text>
<rect class="o" x="161" y="136" width="261.1" height="15" rx="2"/>
<rect class="l" x="161" y="155" width="318.6" height="15" rx="2"/>
<text class="t" x="428.14885731933293" y="148">302</text>
<text class="t" x="485.56701667696103" y="167">368  (+22%)</text>
<text class="m" x="151" y="197" text-anchor="end">nemotron-3-nano:latest</text>
<rect class="o" x="161" y="182" width="115.4" height="15" rx="2"/>
<rect class="l" x="161" y="201" width="125.0" height="15" rx="2"/>
<text class="t" x="282.4416306361952" y="194">134</text>
<text class="t" x="291.95367510809143" y="213">144  (+8%)</text>
<text class="m" x="151" y="243" text-anchor="end">qwen3:1.7b</text>
<rect class="o" x="161" y="228" width="352.6" height="15" rx="2"/>
<rect class="l" x="161" y="247" width="369.9" height="15" rx="2"/>
<text class="t" x="519.5509573810995" y="240">408</text>
<text class="t" x="536.9320568252008" y="259">428  (+5%)</text>
<text class="m" x="151" y="289" text-anchor="end">olmoe:latest</text>
<rect class="o" x="161" y="274" width="420.0" height="15" rx="2"/>
<rect class="l" x="161" y="293" width="379.4" height="15" rx="2"/>
<text class="t" x="587.0" y="286">486</text>
<text class="t" x="546.3576281655343" y="305">439  (-10%)</text>
<text class="m" x="151" y="335" text-anchor="end">granite3-moe:1b</text>
<rect class="o" x="161" y="320" width="322.7" height="15" rx="2"/>
<rect class="l" x="161" y="339" width="279.7" height="15" rx="2"/>
<text class="t" x="489.7177269919703" y="332">373</text>
<text class="t" x="446.6541074737492" y="351">323  (-13%)</text>
<text class="h" x="161" y="404">GREY OLLAMA 0.32.6   GREEN LOKEN 0.1.0</text>
</svg>
