<svg xmlns="http://www.w3.org/2000/svg" width="747" height="436" viewBox="0 0 747 436" font-family="DejaVu Sans, Liberation Sans, Helvetica, Arial, sans-serif">
<style>.t{fill:#57606a;font-size:10.5px}.m{fill:#24292f;font-size:11px}.h{fill:#57606a;font-size:11px;letter-spacing:.06em}.o{fill:#8c959f}.l{fill:#2da44e}.ax{stroke:#d0d7de;stroke-width:1}@media (prefers-color-scheme:dark){.t,.h{fill:#8b949e}.m{fill:#e6edf3}.o{fill:#6e7681}.l{fill:#3fb950}.ax{stroke:#30363d}}</style>
<text class="h" x="223" y="22">QWEN3 - DECODE TOK/S, 10 WIDEST GAPS OF 30 COMPARABLE CELLS, 36 MEASURED</text>
<line class="ax" x1="223" y1="38" x2="223" y2="420"/>
<text class="m" x="213" y="56" text-anchor="end">qwen3:0.6b 131072 short NS GPU</text>
<rect class="o" x="223" y="44" width="100.9" height="11" rx="2"/>
<rect class="l" x="223" y="58" width="354.1" height="11" rx="2"/>
<text class="t" x="329.91114118177717" y="54">160</text>
<text class="t" x="583.0730717185386" y="70">561  (+251%)</text>
<text class="m" x="213" y="90" text-anchor="end">qwen3:0.6b 4096 short NS GPU</text>
<rect class="o" x="223" y="78" width="177.6" height="11" rx="2"/>
<rect class="l" x="223" y="92" width="420.0" height="11" rx="2"/>
<text class="t" x="406.573297248534" y="88">281</text>
<text class="t" x="649.0" y="104">665  (+137%)</text>
<text class="m" x="213" y="124" text-anchor="end">qwen3:0.6b 4096 medium NS GPU</text>
<rect class="o" x="223" y="112" width="181.0" height="11" rx="2"/>
<rect class="l" x="223" y="126" width="410.8" height="11" rx="2"/>
<text class="t" x="410.0464591790708" y="122">287</text>
<text class="t" x="639.8434821831304" y="138">651  (+127%)</text>
<text class="m" x="213" y="158" text-anchor="end">qwen3:8b 131072 short NS GPU</text>
<rect class="o" x="223" y="146" width="43.4" height="11" rx="2"/>
<rect class="l" x="223" y="160" width="94.0" height="11" rx="2"/>
<text class="t" x="272.446098331078" y="156">69</text>
<text class="t" x="323.02796571944066" y="172">149  (+116%)</text>
<text class="m" x="213" y="192" text-anchor="end">qwen3:0.6b 131072 medium NS GPU</text>
<rect class="o" x="223" y="180" width="178.9" height="11" rx="2"/>
<rect class="l" x="223" y="194" width="385.3" height="11" rx="2"/>
<text class="t" x="407.8994136220117" y="190">283</text>
<text class="t" x="614.3315290933695" y="206">610  (+115%)</text>
<text class="m" x="213" y="226" text-anchor="end">qwen3:8b 4096 long NS GPU</text>
<rect class="o" x="223" y="214" width="49.5" height="11" rx="2"/>
<rect class="l" x="223" y="228" width="88.4" height="11" rx="2"/>
<text class="t" x="278.5083446098331" y="224">78</text>
<text class="t" x="317.4077582318448" y="240">140  (+79%)</text>
<text class="m" x="213" y="260" text-anchor="end">qwen3:8b 4096 short NS GPU</text>
<rect class="o" x="223" y="248" width="53.4" height="11" rx="2"/>
<rect class="l" x="223" y="262" width="93.2" height="11" rx="2"/>
<text class="t" x="282.36039693279207" y="258">84</text>
<text class="t" x="322.2070365358593" y="274">148  (+75%)</text>
<text class="m" x="213" y="294" text-anchor="end">qwen3:8b 131072 long NS GPU</text>
<rect class="o" x="223" y="282" width="53.6" height="11" rx="2"/>
<rect class="l" x="223" y="296" width="88.3" height="11" rx="2"/>
<text class="t" x="282.6129905277402" y="292">85</text>
<text class="t" x="317.3446098331078" y="308">140  (+65%)</text>
<text class="m" x="213" y="328" text-anchor="end">qwen3:8b 4096 medium NS GPU</text>
<rect class="o" x="223" y="316" width="53.9" height="11" rx="2"/>
<rect class="l" x="223" y="330" width="88.0" height="11" rx="2"/>
<text class="t" x="282.8655841226883" y="326">85</text>
<text class="t" x="316.96571944068563" y="342">139  (+63%)</text>
<text class="m" x="213" y="362" text-anchor="end">qwen3:8b 131072 medium NS GPU</text>
<rect class="o" x="223" y="350" width="53.7" height="11" rx="2"/>
<rect class="l" x="223" y="364" width="87.6" height="11" rx="2"/>
<text class="t" x="282.73928732521426" y="360">85</text>
<text class="t" x="316.6499774470004" y="376">139  (+63%)</text>
<text class="h" x="223" y="422">GREY OLLAMA 0.32.6   GREEN LOKEN 0.1.0</text>
</svg>
