<svg xmlns="http://www.w3.org/2000/svg" width="797" height="300" viewBox="0 0 797 300" font-family="DejaVu Sans, Liberation Sans, Helvetica, Arial, sans-serif">
<style>.t{fill:#57606a;font-size:10.5px}.m{fill:#24292f;font-size:11px}.h{fill:#57606a;font-size:11px;letter-spacing:.06em}.o{fill:#8c959f}.l{fill:#2da44e}.ax{stroke:#d0d7de;stroke-width:1}@media (prefers-color-scheme:dark){.t,.h{fill:#8b949e}.m{fill:#e6edf3}.o{fill:#6e7681}.l{fill:#3fb950}.ax{stroke:#30363d}}</style>
<text class="h" x="288" y="22">LFM2 - DECODE TOK/S, 6 COMPARABLE CELLS, 6 MEASURED</text>
<line class="ax" x1="288" y1="38" x2="288" y2="284"/>
<text class="m" x="278" y="56" text-anchor="end">lfm2.5-thinking:latest 4096 short S GPU</text>
<rect class="o" x="288" y="44" width="316.7" height="11" rx="2"/>
<rect class="l" x="288" y="58" width="420.0" height="11" rx="2"/>
<text class="t" x="610.661142082266" y="54">500</text>
<text class="t" x="714.0" y="70">664  (+33%)</text>
<text class="m" x="278" y="90" text-anchor="end">lfm2.5-thinking:latest 4096 medium S GPU</text>
<rect class="o" x="288" y="78" width="316.6" height="11" rx="2"/>
<rect class="l" x="288" y="92" width="419.4" height="11" rx="2"/>
<text class="t" x="610.5978604791321" y="88">500</text>
<text class="t" x="713.3671839686606" y="104">663  (+32%)</text>
<text class="m" x="278" y="124" text-anchor="end">lfm2.5-thinking:latest 4096 short NS GPU</text>
<rect class="o" x="288" y="112" width="319.2" height="11" rx="2"/>
<rect class="l" x="288" y="126" width="402.1" height="11" rx="2"/>
<text class="t" x="613.1924062076239" y="122">504</text>
<text class="t" x="696.0913063130932" y="138">635  (+26%)</text>
<text class="m" x="278" y="158" text-anchor="end">lfm2.5-thinking:latest 4096 medium NS GPU</text>
<rect class="o" x="288" y="146" width="317.4" height="11" rx="2"/>
<rect class="l" x="288" y="160" width="399.1" height="11" rx="2"/>
<text class="t" x="611.3572397167395" y="156">502</text>
<text class="t" x="693.0537893626638" y="172">631  (+26%)</text>
<text class="m" x="278" y="192" text-anchor="end">lfm2.5-thinking:latest 4096 long NS GPU</text>
<rect class="o" x="288" y="180" width="337.4" height="11" rx="2"/>
<rect class="l" x="288" y="194" width="417.7" height="11" rx="2"/>
<text class="t" x="631.4175079102004" y="190">533</text>
<text class="t" x="711.658580684044" y="206">660  (+24%)</text>
<text class="m" x="278" y="226" text-anchor="end">lfm2.5-thinking:latest 4096 long S GPU</text>
<rect class="o" x="288" y="214" width="334.9" height="11" rx="2"/>
<rect class="l" x="288" y="228" width="413.6" height="11" rx="2"/>
<text class="t" x="628.9495253879765" y="224">529</text>
<text class="t" x="707.6085580834714" y="240">654  (+23%)</text>
<text class="h" x="288" y="286">GREY OLLAMA 0.32.6   GREEN LOKEN 0.1.0</text>
</svg>
