<svg xmlns="http://www.w3.org/2000/svg" width="787" height="436" viewBox="0 0 787 436" font-family="DejaVu Sans, Liberation Sans, Helvetica, Arial, sans-serif">
<style>.t{fill:#57606a;font-size:10.5px}.m{fill:#24292f;font-size:11px}.h{fill:#57606a;font-size:11px;letter-spacing:.06em}.o{fill:#8c959f}.l{fill:#2da44e}.ax{stroke:#d0d7de;stroke-width:1}@media (prefers-color-scheme:dark){.t,.h{fill:#8b949e}.m{fill:#e6edf3}.o{fill:#6e7681}.l{fill:#3fb950}.ax{stroke:#30363d}}</style>
<text class="h" x="249" y="22">SMOLLM3 - DECODE TOK/S, 10 WIDEST GAPS OF 18 COMPARABLE CELLS, 18 MEASURED</text>
<line class="ax" x1="249" y1="38" x2="249" y2="420"/>
<text class="m" x="239" y="56" text-anchor="end">smollm3:latest 4096 long NS GPU</text>
<rect class="o" x="249" y="44" width="195.9" height="11" rx="2"/>
<rect class="l" x="249" y="58" width="379.1" height="11" rx="2"/>
<text class="t" x="450.9179186515207" y="54">127</text>
<text class="t" x="634.0619274459509" y="70">246  (+93%)</text>
<text class="m" x="239" y="90" text-anchor="end">smollm3:latest 131072 medium NS GPU</text>
<rect class="o" x="249" y="78" width="203.0" height="11" rx="2"/>
<rect class="l" x="249" y="92" width="387.7" height="11" rx="2"/>
<text class="t" x="457.99743495786004" y="88">132</text>
<text class="t" x="642.6804690362771" y="104">252  (+91%)</text>
<text class="m" x="239" y="124" text-anchor="end">smollm3:latest 4096 medium NS GPU</text>
<rect class="o" x="249" y="112" width="195.8" height="11" rx="2"/>
<rect class="l" x="249" y="126" width="369.1" height="11" rx="2"/>
<text class="t" x="450.764016123122" y="122">127</text>
<text class="t" x="624.0582631000367" y="138">240  (+89%)</text>
<text class="m" x="239" y="158" text-anchor="end">smollm3:latest 131072 long NS GPU</text>
<rect class="o" x="249" y="146" width="204.1" height="11" rx="2"/>
<rect class="l" x="249" y="160" width="378.9" height="11" rx="2"/>
<text class="t" x="459.0747526566508" y="156">133</text>
<text class="t" x="633.9080249175522" y="172">246  (+86%)</text>
<text class="m" x="239" y="192" text-anchor="end">smollm3:latest 131072 short NS GPU</text>
<rect class="o" x="249" y="180" width="204.8" height="11" rx="2"/>
<rect class="l" x="249" y="194" width="368.1" height="11" rx="2"/>
<text class="t" x="459.84426529864425" y="190">133</text>
<text class="t" x="623.1348479296446" y="206">239  (+80%)</text>
<text class="m" x="239" y="226" text-anchor="end">smollm3:latest 4096 long S GPU</text>
<rect class="o" x="249" y="214" width="266.1" height="11" rx="2"/>
<rect class="l" x="249" y="228" width="420.0" height="11" rx="2"/>
<text class="t" x="521.0974716013193" y="224">173</text>
<text class="t" x="675.0" y="240">273  (+58%)</text>
<text class="m" x="239" y="260" text-anchor="end">smollm3:latest 131072 short S GPU</text>
<rect class="o" x="249" y="248" width="265.6" height="11" rx="2"/>
<rect class="l" x="249" y="262" width="414.3" height="11" rx="2"/>
<text class="t" x="520.6357640161232" y="258">173</text>
<text class="t" x="669.3056064492488" y="274">269  (+56%)</text>
<text class="m" x="239" y="294" text-anchor="end">smollm3:latest 4096 short S GPU</text>
<rect class="o" x="249" y="282" width="264.7" height="11" rx="2"/>
<rect class="l" x="249" y="296" width="410.6" height="11" rx="2"/>
<text class="t" x="519.7123488457311" y="292">172</text>
<text class="t" x="665.6119457676805" y="308">267  (+55%)</text>
<text class="m" x="239" y="328" text-anchor="end">smollm3:latest 4096 medium S GPU</text>
<rect class="o" x="249" y="316" width="261.2" height="11" rx="2"/>
<rect class="l" x="249" y="330" width="400.1" height="11" rx="2"/>
<text class="t" x="516.1725906925614" y="326">170</text>
<text class="t" x="655.1465738365703" y="342">260  (+53%)</text>
<text class="m" x="239" y="362" text-anchor="end">smollm3:latest 131072 medium S GPU</text>
<rect class="o" x="249" y="350" width="263.6" height="11" rx="2"/>
<rect class="l" x="249" y="364" width="402.5" height="11" rx="2"/>
<text class="t" x="518.6350311469403" y="360">171</text>
<text class="t" x="657.4551117625504" y="376">262  (+53%)</text>
<text class="h" x="249" y="422">GREY OLLAMA 0.32.6   GREEN LOKEN 0.1.0</text>
</svg>
